<svg width="367" height="107" viewBox="0 0 367 107" fill="none" xmlns="http://www.w3.org/2000/svg">
<path d="M88.2502 64.36C86.6302 64.36 85.1202 64.1 83.7202 63.58C82.3402 63.04 81.1402 62.28 80.1202 61.3C79.1002 60.32 78.3002 59.17 77.7202 57.85C77.1602 56.53 76.8802 55.08 76.8802 53.5C76.8802 51.92 77.1602 50.47 77.7202 49.15C78.3002 47.83 79.1002 46.68 80.1202 45.7C81.1602 44.72 82.3702 43.97 83.7502 43.45C85.1302 42.91 86.6402 42.64 88.2802 42.64C90.1002 42.64 91.7402 42.96 93.2002 43.6C94.6802 44.22 95.9202 45.14 96.9202 46.36L93.8002 49.24C93.0802 48.42 92.2802 47.81 91.4002 47.41C90.5202 46.99 89.5602 46.78 88.5202 46.78C87.5402 46.78 86.6402 46.94 85.8202 47.26C85.0002 47.58 84.2902 48.04 83.6902 48.64C83.0902 49.24 82.6202 49.95 82.2802 50.77C81.9602 51.59 81.8002 52.5 81.8002 53.5C81.8002 54.5 81.9602 55.41 82.2802 56.23C82.6202 57.05 83.0902 57.76 83.6902 58.36C84.2902 58.96 85.0002 59.42 85.8202 59.74C86.6402 60.06 87.5402 60.22 88.5202 60.22C89.5602 60.22 90.5202 60.02 91.4002 59.62C92.2802 59.2 93.0802 58.57 93.8002 57.73L96.9202 60.61C95.9202 61.83 94.6802 62.76 93.2002 63.4C91.7402 64.04 90.0902 64.36 88.2502 64.36ZM120.624 64.36C118.964 64.36 117.424 64.09 116.004 63.55C114.604 63.01 113.384 62.25 112.344 61.27C111.324 60.29 110.524 59.14 109.944 57.82C109.384 56.5 109.104 55.06 109.104 53.5C109.104 51.94 109.384 50.5 109.944 49.18C110.524 47.86 111.334 46.71 112.374 45.73C113.414 44.75 114.634 43.99 116.034 43.45C117.434 42.91 118.954 42.64 120.594 42.64C122.254 42.64 123.774 42.91 125.154 43.45C126.554 43.99 127.764 44.75 128.784 45.73C129.824 46.71 130.634 47.86 131.214 49.18C131.794 50.48 132.084 51.92 132.084 53.5C132.084 55.06 131.794 56.51 131.214 57.85C130.634 59.17 129.824 60.32 128.784 61.3C127.764 62.26 126.554 63.01 125.154 63.55C123.774 64.09 122.264 64.36 120.624 64.36ZM120.594 60.22C121.534 60.22 122.394 60.06 123.174 59.74C123.974 59.42 124.674 58.96 125.274 58.36C125.874 57.76 126.334 57.05 126.654 56.23C126.994 55.41 127.164 54.5 127.164 53.5C127.164 52.5 126.994 51.59 126.654 50.77C126.334 49.95 125.874 49.24 125.274 48.64C124.694 48.04 124.004 47.58 123.204 47.26C122.404 46.94 121.534 46.78 120.594 46.78C119.654 46.78 118.784 46.94 117.984 47.26C117.204 47.58 116.514 48.04 115.914 48.64C115.314 49.24 114.844 49.95 114.504 50.77C114.184 51.59 114.024 52.5 114.024 53.5C114.024 54.48 114.184 55.39 114.504 56.23C114.844 57.05 115.304 57.76 115.884 58.36C116.484 58.96 117.184 59.42 117.984 59.74C118.784 60.06 119.654 60.22 120.594 60.22ZM146.398 64V43H150.418L162.808 58.12H160.858V43H165.658V64H161.668L149.248 48.88H151.198V64H146.398ZM185.638 64V46.96H178.918V43H197.218V46.96H190.498V64H185.638ZM206.679 64L216.039 43H220.839L230.229 64H225.129L217.449 45.46H219.369L211.659 64H206.679ZM211.359 59.5L212.649 55.81H223.449L224.769 59.5H211.359ZM252.827 64.36C251.207 64.36 249.697 64.1 248.297 63.58C246.917 63.04 245.717 62.28 244.697 61.3C243.677 60.32 242.877 59.17 242.297 57.85C241.737 56.53 241.457 55.08 241.457 53.5C241.457 51.92 241.737 50.47 242.297 49.15C242.877 47.83 243.677 46.68 244.697 45.7C245.737 44.72 246.947 43.97 248.327 43.45C249.707 42.91 251.217 42.64 252.857 42.64C254.677 42.64 256.317 42.96 257.777 43.6C259.257 44.22 260.497 45.14 261.497 46.36L258.377 49.24C257.657 48.42 256.857 47.81 255.977 47.41C255.097 46.99 254.137 46.78 253.097 46.78C252.117 46.78 251.217 46.94 250.397 47.26C249.577 47.58 248.867 48.04 248.267 48.64C247.667 49.24 247.197 49.95 246.857 50.77C246.537 51.59 246.377 52.5 246.377 53.5C246.377 54.5 246.537 55.41 246.857 56.23C247.197 57.05 247.667 57.76 248.267 58.36C248.867 58.96 249.577 59.42 250.397 59.74C251.217 60.06 252.117 60.22 253.097 60.22C254.137 60.22 255.097 60.02 255.977 59.62C256.857 59.2 257.657 58.57 258.377 57.73L261.497 60.61C260.497 61.83 259.257 62.76 257.777 63.4C256.317 64.04 254.667 64.36 252.827 64.36ZM279.585 64V46.96H272.865V43H291.165V46.96H284.445V64H279.585Z" fill="black"/>
<rect x="4" y="4" width="359" height="99" stroke="black" stroke-width="8"/>
</svg>
