<svg width="141" height="32" viewBox="0 0 141 32" fill="none" xmlns="http://www.w3.org/2000/svg">
<path d="M36.1329 14.865H41.3529V16.47H36.1329V14.865ZM36.2829 19.365H42.2079V21H34.3329V10.5H41.9979V12.135H36.2829V19.365ZM42.9895 21L47.4145 14.91V16.38L43.1995 10.5H45.4045L48.5395 14.85L47.6395 14.865L50.7445 10.5H52.8595L48.6745 16.275V14.865L53.1295 21H50.8795L47.5795 16.38H48.4645L45.2095 21H42.9895ZM54.3133 21V10.5H58.6333C59.5633 10.5 60.3583 10.65 61.0183 10.95C61.6883 11.25 62.2033 11.68 62.5633 12.24C62.9233 12.8 63.1033 13.465 63.1033 14.235C63.1033 15.005 62.9233 15.67 62.5633 16.23C62.2033 16.79 61.6883 17.22 61.0183 17.52C60.3583 17.82 59.5633 17.97 58.6333 17.97H55.3933L56.2633 17.055V21H54.3133ZM56.2633 17.265L55.3933 16.32H58.5433C59.4033 16.32 60.0483 16.14 60.4783 15.78C60.9183 15.41 61.1383 14.895 61.1383 14.235C61.1383 13.565 60.9183 13.05 60.4783 12.69C60.0483 12.33 59.4033 12.15 58.5433 12.15H55.3933L56.2633 11.19V17.265ZM65.0506 21V10.5H67.0006V19.35H72.4906V21H65.0506ZM78.7597 21.15C77.9397 21.15 77.1847 21.015 76.4947 20.745C75.8047 20.475 75.2047 20.1 74.6947 19.62C74.1847 19.13 73.7897 18.56 73.5097 17.91C73.2297 17.25 73.0897 16.53 73.0897 15.75C73.0897 14.97 73.2297 14.255 73.5097 13.605C73.7897 12.945 74.1847 12.375 74.6947 11.895C75.2047 11.405 75.8047 11.025 76.4947 10.755C77.1847 10.485 77.9347 10.35 78.7447 10.35C79.5647 10.35 80.3147 10.485 80.9947 10.755C81.6847 11.025 82.2847 11.405 82.7947 11.895C83.3047 12.375 83.6997 12.945 83.9797 13.605C84.2597 14.255 84.3997 14.97 84.3997 15.75C84.3997 16.53 84.2597 17.25 83.9797 17.91C83.6997 18.57 83.3047 19.14 82.7947 19.62C82.2847 20.1 81.6847 20.475 80.9947 20.745C80.3147 21.015 79.5697 21.15 78.7597 21.15ZM78.7447 19.44C79.2747 19.44 79.7647 19.35 80.2147 19.17C80.6647 18.99 81.0547 18.735 81.3847 18.405C81.7147 18.065 81.9697 17.675 82.1497 17.235C82.3397 16.785 82.4347 16.29 82.4347 15.75C82.4347 15.21 82.3397 14.72 82.1497 14.28C81.9697 13.83 81.7147 13.44 81.3847 13.11C81.0547 12.77 80.6647 12.51 80.2147 12.33C79.7647 12.15 79.2747 12.06 78.7447 12.06C78.2147 12.06 77.7247 12.15 77.2747 12.33C76.8347 12.51 76.4447 12.77 76.1047 13.11C75.7747 13.44 75.5147 13.83 75.3247 14.28C75.1447 14.72 75.0547 15.21 75.0547 15.75C75.0547 16.28 75.1447 16.77 75.3247 17.22C75.5147 17.67 75.7747 18.065 76.1047 18.405C76.4347 18.735 76.8247 18.99 77.2747 19.17C77.7247 19.35 78.2147 19.44 78.7447 19.44ZM86.4666 21V10.5H90.7866C91.7166 10.5 92.5116 10.65 93.1716 10.95C93.8416 11.25 94.3566 11.68 94.7166 12.24C95.0766 12.8 95.2566 13.465 95.2566 14.235C95.2566 15.005 95.0766 15.67 94.7166 16.23C94.3566 16.78 93.8416 17.205 93.1716 17.505C92.5116 17.795 91.7166 17.94 90.7866 17.94H87.5466L88.4166 17.055V21H86.4666ZM93.3366 21L90.6816 17.19H92.7666L95.4366 21H93.3366ZM88.4166 17.265L87.5466 16.335H90.6966C91.5566 16.335 92.2016 16.15 92.6316 15.78C93.0716 15.41 93.2916 14.895 93.2916 14.235C93.2916 13.565 93.0716 13.05 92.6316 12.69C92.2016 12.33 91.5566 12.15 90.6966 12.15H87.5466L88.4166 11.19V17.265ZM99.2383 14.865H104.458V16.47H99.2383V14.865ZM99.3883 19.365H105.313V21H97.4383V10.5H105.103V12.135H99.3883V19.365Z" fill="black"/>
<line x1="140" x2="140" y2="32" stroke="black" stroke-width="2"/>
<line x1="1" x2="1" y2="32" stroke="black" stroke-width="2"/>
</svg>
