<svg width="156" height="157" viewBox="0 0 156 157" fill="none" xmlns="http://www.w3.org/2000/svg">
<path d="M17.839 139.2V156H16.135V142.56L9.535 153.864H8.695L2.095 142.632V156H0.390999V139.2H1.855L9.151 151.656L16.375 139.2H17.839ZM33.906 156.144C32.242 156.144 30.73 155.776 29.37 155.04C28.026 154.288 26.97 153.264 26.202 151.968C25.45 150.672 25.074 149.216 25.074 147.6C25.074 145.984 25.45 144.528 26.202 143.232C26.97 141.936 28.026 140.92 29.37 140.184C30.73 139.432 32.242 139.056 33.906 139.056C35.57 139.056 37.066 139.424 38.394 140.16C39.738 140.896 40.794 141.92 41.562 143.232C42.33 144.528 42.714 145.984 42.714 147.6C42.714 149.216 42.33 150.68 41.562 151.992C40.794 153.288 39.738 154.304 38.394 155.04C37.066 155.776 35.57 156.144 33.906 156.144ZM33.906 154.56C35.234 154.56 36.434 154.264 37.506 153.672C38.578 153.064 39.418 152.232 40.026 151.176C40.634 150.104 40.938 148.912 40.938 147.6C40.938 146.288 40.634 145.104 40.026 144.048C39.418 142.976 38.578 142.144 37.506 141.552C36.434 140.944 35.234 140.64 33.906 140.64C32.578 140.64 31.37 140.944 30.282 141.552C29.21 142.144 28.362 142.976 27.738 144.048C27.13 145.104 26.826 146.288 26.826 147.6C26.826 148.912 27.13 150.104 27.738 151.176C28.362 152.232 29.21 153.064 30.282 153.672C31.37 154.264 32.578 154.56 33.906 154.56ZM63.9839 139.2V156H62.5199L51.7199 142.368V156H49.9439V139.2H51.4079L62.2319 152.832V139.2H63.9839ZM84.5485 147.6H86.2525V154.008C85.4685 154.696 84.5405 155.224 83.4685 155.592C82.3965 155.96 81.2685 156.144 80.0845 156.144C78.4045 156.144 76.8925 155.776 75.5485 155.04C74.2045 154.304 73.1485 153.288 72.3805 151.992C71.6125 150.68 71.2285 149.216 71.2285 147.6C71.2285 145.984 71.6125 144.528 72.3805 143.232C73.1485 141.92 74.2045 140.896 75.5485 140.16C76.8925 139.424 78.4125 139.056 80.1085 139.056C81.3885 139.056 82.5645 139.264 83.6365 139.68C84.7085 140.08 85.6125 140.68 86.3485 141.48L85.2445 142.608C83.9165 141.296 82.2285 140.64 80.1805 140.64C78.8205 140.64 77.5885 140.944 76.4845 141.552C75.3965 142.144 74.5405 142.976 73.9165 144.048C73.2925 145.104 72.9805 146.288 72.9805 147.6C72.9805 148.912 73.2925 150.096 73.9165 151.152C74.5405 152.208 75.3965 153.04 76.4845 153.648C77.5725 154.256 78.7965 154.56 80.1565 154.56C81.8845 154.56 83.3485 154.128 84.5485 153.264V147.6ZM101.872 156.144C100.208 156.144 98.6961 155.776 97.3361 155.04C95.9921 154.288 94.9361 153.264 94.1681 151.968C93.4161 150.672 93.0401 149.216 93.0401 147.6C93.0401 145.984 93.4161 144.528 94.1681 143.232C94.9361 141.936 95.9921 140.92 97.3361 140.184C98.6961 139.432 100.208 139.056 101.872 139.056C103.536 139.056 105.032 139.424 106.36 140.16C107.704 140.896 108.76 141.92 109.528 143.232C110.296 144.528 110.68 145.984 110.68 147.6C110.68 149.216 110.296 150.68 109.528 151.992C108.76 153.288 107.704 154.304 106.36 155.04C105.032 155.776 103.536 156.144 101.872 156.144ZM101.872 154.56C103.2 154.56 104.4 154.264 105.472 153.672C106.544 153.064 107.384 152.232 107.992 151.176C108.6 150.104 108.904 148.912 108.904 147.6C108.904 146.288 108.6 145.104 107.992 144.048C107.384 142.976 106.544 142.144 105.472 141.552C104.4 140.944 103.2 140.64 101.872 140.64C100.544 140.64 99.3361 140.944 98.2481 141.552C97.1761 142.144 96.3281 142.976 95.7041 144.048C95.0961 145.104 94.7921 146.288 94.7921 147.6C94.7921 148.912 95.0961 150.104 95.7041 151.176C96.3281 152.232 97.1761 153.064 98.2481 153.672C99.3361 154.264 100.544 154.56 101.872 154.56ZM117.91 139.2H124.75C126.526 139.2 128.094 139.56 129.454 140.28C130.814 140.984 131.87 141.976 132.622 143.256C133.374 144.52 133.75 145.968 133.75 147.6C133.75 149.232 133.374 150.688 132.622 151.968C131.87 153.232 130.814 154.224 129.454 154.944C128.094 155.648 126.526 156 124.75 156H117.91V139.2ZM124.654 154.464C126.126 154.464 127.414 154.176 128.518 153.6C129.622 153.008 130.478 152.2 131.086 151.176C131.694 150.136 131.998 148.944 131.998 147.6C131.998 146.256 131.694 145.072 131.086 144.048C130.478 143.008 129.622 142.2 128.518 141.624C127.414 141.032 126.126 140.736 124.654 140.736H119.686V154.464H124.654ZM151.571 147.336C152.675 147.576 153.523 148.056 154.115 148.776C154.723 149.48 155.027 150.392 155.027 151.512C155.027 152.952 154.491 154.064 153.419 154.848C152.363 155.616 150.795 156 148.715 156H140.987V139.2H148.235C150.107 139.2 151.555 139.576 152.579 140.328C153.619 141.08 154.139 142.144 154.139 143.52C154.139 144.448 153.907 145.24 153.443 145.896C152.995 146.536 152.371 147.016 151.571 147.336ZM142.763 140.664V146.76H148.115C149.475 146.76 150.523 146.504 151.259 145.992C151.995 145.464 152.363 144.704 152.363 143.712C152.363 142.72 151.995 141.968 151.259 141.456C150.523 140.928 149.475 140.664 148.115 140.664H142.763ZM148.691 154.536C150.195 154.536 151.331 154.28 152.099 153.768C152.867 153.256 153.251 152.456 153.251 151.368C153.251 149.272 151.731 148.224 148.691 148.224H142.763V154.536H148.691Z" fill="black"/>
<path d="M99.0675 39.0626C94.1831 16.4383 83.9894 10.4137 81.4027 6.15511C79.9969 3.8385 78.5634 0.317871 78.5634 0.317871C78.4232 2.32456 78.1747 3.59546 76.5437 5.12055C73.2775 8.1774 59.3971 20.0525 58.2312 45.7605C57.1439 69.7292 75.0083 84.5118 77.3826 86.0392C79.1962 86.9756 81.4176 86.057 82.4794 85.1986C91.0888 78.9912 102.867 62.4405 99.0569 39.0626" fill="#10AA50"/>
</svg>
