<svg width="116" height="158" viewBox="0 0 116 158" fill="none" xmlns="http://www.w3.org/2000/svg">
<path d="M14.4892 140.2V157H13.0252L2.22515 143.368V157H0.449154V140.2H1.91315L12.7372 153.832V140.2H14.4892ZM30.5657 157.144C28.9017 157.144 27.3897 156.776 26.0297 156.04C24.6857 155.288 23.6297 154.264 22.8617 152.968C22.1097 151.672 21.7337 150.216 21.7337 148.6C21.7337 146.984 22.1097 145.528 22.8617 144.232C23.6297 142.936 24.6857 141.92 26.0297 141.184C27.3897 140.432 28.9017 140.056 30.5657 140.056C32.2297 140.056 33.7257 140.424 35.0537 141.16C36.3977 141.896 37.4537 142.92 38.2217 144.232C38.9897 145.528 39.3737 146.984 39.3737 148.6C39.3737 150.216 38.9897 151.68 38.2217 152.992C37.4537 154.288 36.3977 155.304 35.0537 156.04C33.7257 156.776 32.2297 157.144 30.5657 157.144ZM30.5657 155.56C31.8937 155.56 33.0937 155.264 34.1657 154.672C35.2377 154.064 36.0777 153.232 36.6857 152.176C37.2937 151.104 37.5977 149.912 37.5977 148.6C37.5977 147.288 37.2937 146.104 36.6857 145.048C36.0777 143.976 35.2377 143.144 34.1657 142.552C33.0937 141.944 31.8937 141.64 30.5657 141.64C29.2377 141.64 28.0297 141.944 26.9417 142.552C25.8697 143.144 25.0217 143.976 24.3977 145.048C23.7897 146.104 23.4857 147.288 23.4857 148.6C23.4857 149.912 23.7897 151.104 24.3977 152.176C25.0217 153.232 25.8697 154.064 26.9417 154.672C28.0297 155.264 29.2377 155.56 30.5657 155.56ZM46.6036 140.2H53.4436C55.2196 140.2 56.7876 140.56 58.1476 141.28C59.5076 141.984 60.5636 142.976 61.3156 144.256C62.0676 145.52 62.4436 146.968 62.4436 148.6C62.4436 150.232 62.0676 151.688 61.3156 152.968C60.5636 154.232 59.5076 155.224 58.1476 155.944C56.7876 156.648 55.2196 157 53.4436 157H46.6036V140.2ZM53.3476 155.464C54.8196 155.464 56.1076 155.176 57.2116 154.6C58.3156 154.008 59.1716 153.2 59.7796 152.176C60.3876 151.136 60.6916 149.944 60.6916 148.6C60.6916 147.256 60.3876 146.072 59.7796 145.048C59.1716 144.008 58.3156 143.2 57.2116 142.624C56.1076 142.032 54.8196 141.736 53.3476 141.736H48.3796V155.464H53.3476ZM81.5609 155.464V157H69.6809V140.2H81.2009V141.736H71.4569V147.712H80.1449V149.224H71.4569V155.464H81.5609ZM90.7847 157.144C89.8247 157.144 88.9367 156.936 88.1207 156.52C87.3047 156.104 86.6407 155.512 86.1287 154.744L87.1847 153.544C88.1127 154.92 89.3207 155.608 90.8087 155.608C92.8887 155.608 93.9287 154.376 93.9287 151.912V141.736H87.7847V140.2H95.6807V151.84C95.6807 153.6 95.2647 154.928 94.4327 155.824C93.6167 156.704 92.4007 157.144 90.7847 157.144ZM108.889 157.144C107.641 157.144 106.441 156.944 105.289 156.544C104.153 156.144 103.273 155.616 102.649 154.96L103.345 153.592C103.953 154.2 104.761 154.696 105.769 155.08C106.777 155.448 107.817 155.632 108.889 155.632C110.393 155.632 111.521 155.36 112.273 154.816C113.025 154.256 113.401 153.536 113.401 152.656C113.401 151.984 113.193 151.448 112.777 151.048C112.377 150.648 111.881 150.344 111.289 150.136C110.697 149.912 109.873 149.672 108.817 149.416C107.553 149.096 106.545 148.792 105.793 148.504C105.041 148.2 104.393 147.744 103.849 147.136C103.321 146.528 103.057 145.704 103.057 144.664C103.057 143.816 103.281 143.048 103.729 142.36C104.177 141.656 104.865 141.096 105.793 140.68C106.721 140.264 107.873 140.056 109.249 140.056C110.209 140.056 111.145 140.192 112.057 140.464C112.985 140.72 113.785 141.08 114.457 141.544L113.857 142.96C113.153 142.496 112.401 142.152 111.601 141.928C110.801 141.688 110.017 141.568 109.249 141.568C107.777 141.568 106.665 141.856 105.913 142.432C105.177 142.992 104.809 143.72 104.809 144.616C104.809 145.288 105.009 145.832 105.409 146.248C105.825 146.648 106.337 146.96 106.945 147.184C107.569 147.392 108.401 147.624 109.441 147.88C110.673 148.184 111.665 148.488 112.417 148.792C113.185 149.08 113.833 149.528 114.361 150.136C114.889 150.728 115.153 151.536 115.153 152.56C115.153 153.408 114.921 154.184 114.457 154.888C114.009 155.576 113.313 156.128 112.369 156.544C111.425 156.944 110.265 157.144 108.889 157.144Z" fill="black"/>
<path d="M58.7386 99.8144C57.4113 99.8144 56.1725 99.4476 55.0222 98.8057L43.2536 91.5615C41.4839 90.5528 42.3688 90.186 42.8997 90.0026C45.2888 89.1774 45.7312 88.9939 48.2088 87.5268C48.4743 87.3434 48.8282 87.4351 49.0937 87.6185L58.1192 93.2121C58.4732 93.3955 58.9156 93.3955 59.1811 93.2121L94.4869 72.0296C94.8408 71.8462 95.0178 71.4794 95.0178 71.0209V28.7477C95.0178 28.2892 94.8408 27.9224 94.4869 27.739L59.1811 6.64818C58.8271 6.46479 58.3847 6.46479 58.1192 6.64818L22.8134 27.739C22.4595 27.9224 22.2825 28.3809 22.2825 28.7477V71.0209C22.2825 71.3877 22.4595 71.8462 22.8134 72.0296L32.4584 77.8067C37.679 80.5576 40.953 77.3482 40.953 74.1387V32.4156C40.953 31.8654 41.3954 31.3152 42.0148 31.3152H46.5276C47.0585 31.3152 47.5894 31.7737 47.5894 32.4156V74.1387C47.5894 81.3829 43.7845 85.6011 37.1481 85.6011C35.1129 85.6011 33.5202 85.6011 29.0074 83.3086L19.7164 77.8067C17.4158 76.4312 16 73.8636 16 71.1126V28.8394C16 26.0884 17.4158 23.5208 19.7164 22.1453L55.0222 0.96284C57.2344 -0.320947 60.2429 -0.320947 62.455 0.96284L97.7608 22.1453C100.061 23.5208 101.477 26.0884 101.477 28.8394V71.1126C101.477 73.8636 100.061 76.4312 97.7608 77.8067L62.455 98.9892C61.3047 99.5393 59.9774 99.8144 58.7386 99.8144ZM69.6224 70.7458C54.1374 70.7458 50.9519 63.4099 50.9519 57.1744C50.9519 56.6242 51.3943 56.074 52.0137 56.074H56.615C57.1459 56.074 57.5883 56.4408 57.5883 56.991C58.2962 61.851 60.3314 64.2352 69.7109 64.2352C77.1437 64.2352 80.3291 62.4929 80.3291 58.3665C80.3291 55.9823 79.4443 54.24 67.8527 53.0479C58.2077 52.0392 52.1907 49.8384 52.1907 41.8606C52.1907 34.433 58.2077 30.0314 68.2951 30.0314C79.6213 30.0314 85.1959 34.0662 85.9037 42.8693C85.9037 43.1444 85.8153 43.4195 85.6383 43.6946C85.4613 43.878 85.1959 44.0614 84.9304 44.0614H80.3291C79.8867 44.0614 79.4443 43.6946 79.3558 43.2361C78.294 38.1927 75.5509 36.5421 68.2951 36.5421C60.1544 36.5421 59.1811 39.4765 59.1811 41.6772C59.1811 44.3365 60.3314 45.1618 71.3036 46.629C82.1873 48.0962 87.3195 50.2052 87.3195 58.0914C87.231 66.1609 80.8601 70.7458 69.6224 70.7458Z" fill="#539E43"/>
</svg>
