<svg width="404" height="107" viewBox="0 0 404 107" fill="none" xmlns="http://www.w3.org/2000/svg">
<path d="M131.519 64.36C129.839 64.36 128.229 64.14 126.689 63.7C125.149 63.24 123.909 62.65 122.969 61.93L124.619 58.27C125.519 58.91 126.579 59.44 127.799 59.86C129.039 60.26 130.289 60.46 131.549 60.46C132.509 60.46 133.279 60.37 133.859 60.19C134.459 59.99 134.899 59.72 135.179 59.38C135.459 59.04 135.599 58.65 135.599 58.21C135.599 57.65 135.379 57.21 134.939 56.89C134.499 56.55 133.919 56.28 133.199 56.08C132.479 55.86 131.679 55.66 130.799 55.48C129.939 55.28 129.069 55.04 128.189 54.76C127.329 54.48 126.539 54.12 125.819 53.68C125.099 53.24 124.509 52.66 124.049 51.94C123.609 51.22 123.389 50.3 123.389 49.18C123.389 47.98 123.709 46.89 124.349 45.91C125.009 44.91 125.989 44.12 127.289 43.54C128.609 42.94 130.259 42.64 132.239 42.64C133.559 42.64 134.859 42.8 136.139 43.12C137.419 43.42 138.549 43.88 139.529 44.5L138.029 48.19C137.049 47.63 136.069 47.22 135.089 46.96C134.109 46.68 133.149 46.54 132.209 46.54C131.269 46.54 130.499 46.65 129.899 46.87C129.299 47.09 128.869 47.38 128.609 47.74C128.349 48.08 128.219 48.48 128.219 48.94C128.219 49.48 128.439 49.92 128.879 50.26C129.319 50.58 129.899 50.84 130.619 51.04C131.339 51.24 132.129 51.44 132.989 51.64C133.869 51.84 134.739 52.07 135.599 52.33C136.479 52.59 137.279 52.94 137.999 53.38C138.719 53.82 139.299 54.4 139.739 55.12C140.199 55.84 140.429 56.75 140.429 57.85C140.429 59.03 140.099 60.11 139.439 61.09C138.779 62.07 137.789 62.86 136.469 63.46C135.169 64.06 133.519 64.36 131.519 64.36ZM158.761 59.2L158.491 53.59L168.541 43H173.941L164.881 52.75L162.181 55.63L158.761 59.2ZM154.411 64V43H159.241V64H154.411ZM168.781 64L161.311 54.85L164.491 51.4L174.451 64H168.781ZM187.279 64V43H192.139V64H187.279ZM207.785 64V43H212.645V60.04H223.175V64H207.785ZM236.551 64V43H241.411V60.04H251.941V64H236.551ZM272.13 64.36C270.45 64.36 268.84 64.14 267.3 63.7C265.76 63.24 264.52 62.65 263.58 61.93L265.23 58.27C266.13 58.91 267.19 59.44 268.41 59.86C269.65 60.26 270.9 60.46 272.16 60.46C273.12 60.46 273.89 60.37 274.47 60.19C275.07 59.99 275.51 59.72 275.79 59.38C276.07 59.04 276.21 58.65 276.21 58.21C276.21 57.65 275.99 57.21 275.55 56.89C275.11 56.55 274.53 56.28 273.81 56.08C273.09 55.86 272.29 55.66 271.41 55.48C270.55 55.28 269.68 55.04 268.8 54.76C267.94 54.48 267.15 54.12 266.43 53.68C265.71 53.24 265.12 52.66 264.66 51.94C264.22 51.22 264 50.3 264 49.18C264 47.98 264.32 46.89 264.96 45.91C265.62 44.91 266.6 44.12 267.9 43.54C269.22 42.94 270.87 42.64 272.85 42.64C274.17 42.64 275.47 42.8 276.75 43.12C278.03 43.42 279.16 43.88 280.14 44.5L278.64 48.19C277.66 47.63 276.68 47.22 275.7 46.96C274.72 46.68 273.76 46.54 272.82 46.54C271.88 46.54 271.11 46.65 270.51 46.87C269.91 47.09 269.48 47.38 269.22 47.74C268.96 48.08 268.83 48.48 268.83 48.94C268.83 49.48 269.05 49.92 269.49 50.26C269.93 50.58 270.51 50.84 271.23 51.04C271.95 51.24 272.74 51.44 273.6 51.64C274.48 51.84 275.35 52.07 276.21 52.33C277.09 52.59 277.89 52.94 278.61 53.38C279.33 53.82 279.91 54.4 280.35 55.12C280.81 55.84 281.04 56.75 281.04 57.85C281.04 59.03 280.71 60.11 280.05 61.09C279.39 62.07 278.4 62.86 277.08 63.46C275.78 64.06 274.13 64.36 272.13 64.36Z" fill="black"/>
<path d="M4 4H400V103H4V4Z" stroke="black" stroke-width="8"/>
</svg>
