<svg width="103" height="162" viewBox="0 0 103 162" fill="none" xmlns="http://www.w3.org/2000/svg">
<path d="M0.851051 157V140.2H2.31505L9.99505 153.304H9.22705L16.8351 140.2H18.2991V157H16.5951V142.864H17.0031L9.99505 154.864H9.15505L2.09905 142.864H2.55505V157H0.851051ZM26.758 161.776C26.166 161.776 25.598 161.68 25.054 161.488C24.526 161.296 24.07 161.008 23.686 160.624L24.478 159.352C24.798 159.656 25.142 159.888 25.51 160.048C25.894 160.224 26.318 160.312 26.782 160.312C27.342 160.312 27.822 160.152 28.222 159.832C28.638 159.528 29.03 158.984 29.398 158.2L30.214 156.352L30.406 156.088L35.59 144.4H37.27L30.958 158.512C30.606 159.328 30.214 159.976 29.782 160.456C29.366 160.936 28.91 161.272 28.414 161.464C27.918 161.672 27.366 161.776 26.758 161.776ZM30.118 157.36L24.31 144.4H26.086L31.222 155.968L30.118 157.36ZM47.7235 157.144C46.4755 157.144 45.2755 156.944 44.1235 156.544C42.9875 156.128 42.1075 155.6 41.4835 154.96L42.1795 153.592C42.7715 154.168 43.5635 154.656 44.5555 155.056C45.5635 155.44 46.6195 155.632 47.7235 155.632C48.7795 155.632 49.6355 155.504 50.2915 155.248C50.9635 154.976 51.4515 154.616 51.7555 154.168C52.0755 153.72 52.2355 153.224 52.2355 152.68C52.2355 152.024 52.0435 151.496 51.6595 151.096C51.2915 150.696 50.8035 150.384 50.1955 150.16C49.5875 149.92 48.9155 149.712 48.1795 149.536C47.4435 149.36 46.7075 149.176 45.9715 148.984C45.2355 148.776 44.5555 148.504 43.9315 148.168C43.3235 147.832 42.8275 147.392 42.4435 146.848C42.0755 146.288 41.8915 145.56 41.8915 144.664C41.8915 143.832 42.1075 143.072 42.5395 142.384C42.9875 141.68 43.6675 141.12 44.5795 140.704C45.4915 140.272 46.6595 140.056 48.0835 140.056C49.0275 140.056 49.9635 140.192 50.8915 140.464C51.8195 140.72 52.6195 141.08 53.2915 141.544L52.6915 142.96C51.9715 142.48 51.2035 142.128 50.3875 141.904C49.5875 141.68 48.8115 141.568 48.0595 141.568C47.0515 141.568 46.2195 141.704 45.5635 141.976C44.9075 142.248 44.4195 142.616 44.0995 143.08C43.7955 143.528 43.6435 144.04 43.6435 144.616C43.6435 145.272 43.8275 145.8 44.1955 146.2C44.5795 146.6 45.0755 146.912 45.6835 147.136C46.3075 147.36 46.9875 147.56 47.7235 147.736C48.4595 147.912 49.1875 148.104 49.9075 148.312C50.6435 148.52 51.3155 148.792 51.9235 149.128C52.5475 149.448 53.0435 149.88 53.4115 150.424C53.7955 150.968 53.9875 151.68 53.9875 152.56C53.9875 153.376 53.7635 154.136 53.3155 154.84C52.8675 155.528 52.1795 156.088 51.2515 156.52C50.3395 156.936 49.1635 157.144 47.7235 157.144ZM68.4502 157.144C67.1862 157.144 66.0102 156.936 64.9222 156.52C63.8502 156.088 62.9142 155.488 62.1142 154.72C61.3302 153.936 60.7142 153.032 60.2662 152.008C59.8342 150.968 59.6182 149.832 59.6182 148.6C59.6182 147.368 59.8342 146.24 60.2662 145.216C60.7142 144.176 61.3302 143.272 62.1142 142.504C62.9142 141.72 63.8502 141.12 64.9222 140.704C65.9942 140.272 67.1702 140.056 68.4502 140.056C69.7142 140.056 70.8822 140.272 71.9542 140.704C73.0262 141.12 73.9542 141.712 74.7382 142.48C75.5382 143.248 76.1542 144.152 76.5862 145.192C77.0342 146.232 77.2582 147.368 77.2582 148.6C77.2582 149.832 77.0342 150.968 76.5862 152.008C76.1542 153.048 75.5382 153.952 74.7382 154.72C73.9542 155.488 73.0262 156.088 71.9542 156.52C70.8822 156.936 69.7142 157.144 68.4502 157.144ZM73.9462 160.336C73.4342 160.336 72.9382 160.272 72.4582 160.144C71.9782 160.016 71.4902 159.808 70.9942 159.52C70.5142 159.248 70.0182 158.888 69.5062 158.44C68.9942 157.992 68.4342 157.448 67.8262 156.808L69.7702 156.328C70.2662 156.92 70.7462 157.408 71.2102 157.792C71.6902 158.176 72.1542 158.456 72.6022 158.632C73.0662 158.824 73.5222 158.92 73.9702 158.92C75.2182 158.92 76.2822 158.408 77.1622 157.384L78.0262 158.416C76.9702 159.696 75.6102 160.336 73.9462 160.336ZM68.4502 155.56C69.4582 155.56 70.3862 155.392 71.2342 155.056C72.0982 154.704 72.8422 154.208 73.4662 153.568C74.1062 152.928 74.6022 152.192 74.9542 151.36C75.3062 150.512 75.4822 149.592 75.4822 148.6C75.4822 147.592 75.3062 146.672 74.9542 145.84C74.6022 144.992 74.1062 144.256 73.4662 143.632C72.8422 142.992 72.0982 142.504 71.2342 142.168C70.3862 141.816 69.4582 141.64 68.4502 141.64C67.4422 141.64 66.5062 141.816 65.6422 142.168C64.7782 142.504 64.0262 142.992 63.3862 143.632C62.7622 144.256 62.2662 144.992 61.8982 145.84C61.5462 146.672 61.3702 147.592 61.3702 148.6C61.3702 149.592 61.5462 150.512 61.8982 151.36C62.2662 152.192 62.7622 152.928 63.3862 153.568C64.0262 154.208 64.7782 154.704 65.6422 155.056C66.5062 155.392 67.4422 155.56 68.4502 155.56ZM84.4881 157V140.2H86.2641V155.464H95.6721V157H84.4881Z" fill="black"/>
<path d="M94.8556 77.343C89.2524 77.2048 84.9099 77.7594 81.2677 79.2833C80.2171 79.6989 78.536 79.6993 78.3958 81.0155C78.9565 81.5701 79.0264 82.4708 79.5167 83.2327C80.3578 84.618 81.828 86.4892 83.1589 87.4594C84.6296 88.5678 86.1006 89.6762 87.6412 90.6464C90.3729 92.3094 93.4548 93.2792 96.1162 94.9422C97.6577 95.9115 99.1977 97.1594 100.739 98.1987C101.509 98.7525 101.999 99.6536 102.98 100V99.7922C102.49 99.1685 102.35 98.2679 101.86 97.575C101.16 96.8821 100.459 96.2584 99.7584 95.5655C97.7271 92.8636 95.2058 90.5077 92.4741 88.5678C90.2332 87.0434 85.33 84.9649 84.4195 82.4012C84.4195 82.4012 84.3492 82.3321 84.2794 82.263C85.8203 82.1243 87.6412 81.5701 89.1123 81.1541C91.4938 80.5304 93.6649 80.669 96.1162 80.0457C97.2367 79.7684 98.3576 79.422 99.4781 79.0756V78.4522C98.2179 77.2047 97.307 75.5421 95.9761 74.3642C92.4042 71.315 88.4817 68.3362 84.4195 65.8421C82.248 64.4564 79.4464 63.5553 77.1353 62.3778C76.2951 61.9614 74.8939 61.754 74.404 61.0612C73.1429 59.5368 72.4425 57.5278 71.5321 55.726C69.5016 51.9149 67.5397 47.689 65.7887 43.6705C64.5286 40.9682 63.7579 38.2659 62.2169 35.7718C55.0029 23.9932 47.1584 16.8568 35.1115 9.85863C32.5199 8.4038 29.4385 7.78005 26.1465 7.01808C24.396 6.94853 22.6445 6.81031 20.8935 6.74076C19.7731 6.25567 18.6522 4.9395 17.6714 4.31575C13.68 1.82119 3.3836 -3.5826 0.441855 3.55378C-1.44931 8.05738 3.24344 12.4914 4.85425 14.7782C6.04545 16.3717 7.58597 18.1729 8.42653 19.9747C8.9169 21.1517 9.05662 22.3997 9.54699 23.6467C10.6679 26.6946 11.718 30.0902 13.1891 32.9312C13.9598 34.3861 14.8 35.9105 15.7807 37.2266C16.3409 37.9886 17.3212 38.3354 17.5317 39.5825C16.5514 40.9682 16.4811 43.0468 15.9204 44.779C13.3992 52.6082 14.3799 62.3083 17.9517 68.0589C19.0722 69.7906 21.734 73.6022 25.3059 72.1469C28.4577 70.8999 27.7573 66.9505 28.6677 63.4862C28.8782 62.6542 28.738 62.1005 29.1581 61.5463C29.1585 61.6154 29.1581 61.6849 29.1581 61.6849C30.1388 63.6248 31.1191 65.4957 32.0295 67.4355C34.201 70.8303 37.9829 74.3641 41.1347 76.7201C42.8163 77.9667 44.1468 80.1148 46.2479 80.8772V80.669H46.1078C45.6873 80.0453 45.0572 79.7684 44.4969 79.2833C43.2363 78.0362 41.8351 76.5118 40.8548 75.1261C37.9135 71.2458 35.3215 66.9505 33.0103 62.516C31.8898 60.3683 30.9091 58.0124 29.9987 55.8647C29.5782 55.0328 29.5782 53.7861 28.8778 53.3706C27.8272 54.8945 26.2867 56.2112 25.5159 58.082C24.1859 61.0612 24.0453 64.7333 23.5549 68.544C23.275 68.6135 23.4148 68.544 23.2746 68.6826C21.0337 68.128 20.263 65.8421 19.4224 63.9017C17.3212 58.9826 16.971 51.0838 18.7923 45.4027C19.2827 43.9474 21.3839 39.3747 20.5433 37.989C20.1232 36.6724 18.722 35.9104 17.9517 34.8711C17.0413 33.5545 16.0606 31.8919 15.4305 30.4367C13.7494 26.5568 12.9088 22.261 11.088 18.3807C10.2474 16.579 8.77673 14.7087 7.58597 13.046C6.25549 11.1752 4.78438 9.85863 3.73378 7.64138C3.38402 6.87941 2.89321 5.63235 3.45344 4.80083C3.59361 4.24663 3.8735 4.03886 4.43417 3.9002C5.3446 3.13779 7.93615 4.10797 8.84656 4.52351C11.4381 5.56236 13.6092 6.53298 15.7807 7.98781C16.761 8.68067 17.8115 9.99728 19.0722 10.3437H20.5433C22.7846 10.8284 25.3059 10.4824 27.4071 11.1057C31.1195 12.2832 34.4809 14.0158 37.493 15.8866C46.6684 21.6372 54.2322 29.8133 59.3454 39.5825C60.186 41.1756 60.5358 42.6313 61.3065 44.2939C62.7776 47.6891 64.5984 51.1534 66.0691 54.479C67.5397 57.7351 68.9405 61.0612 71.0417 63.7635C72.0927 65.2179 76.2947 65.9803 78.1858 66.7427C79.5866 67.366 81.7581 67.9207 83.0187 68.6827C85.3998 70.137 87.7813 71.8005 90.0227 73.394C91.1436 74.2251 94.6451 75.9577 94.8556 77.343L94.8556 77.343Z" fill="#00546B"/>
</svg>
