<svg width="178" height="156" viewBox="0 0 178 156" fill="none" xmlns="http://www.w3.org/2000/svg">
<path d="M6.17587 139.736H0.271865V138.2H13.8559V139.736H7.95187V155H6.17587V139.736ZM25.585 149.192V155H23.833V149.192L17.113 138.2H19.009L24.769 147.632L30.529 138.2H32.305L25.585 149.192ZM44.245 138.2C46.389 138.2 48.069 138.712 49.285 139.736C50.501 140.76 51.109 142.168 51.109 143.96C51.109 145.752 50.501 147.16 49.285 148.184C48.069 149.192 46.389 149.696 44.245 149.696H39.733V155H37.957V138.2H44.245ZM44.197 148.136C45.861 148.136 47.133 147.776 48.013 147.056C48.893 146.32 49.333 145.288 49.333 143.96C49.333 142.6 48.893 141.56 48.013 140.84C47.133 140.104 45.861 139.736 44.197 139.736H39.733V148.136H44.197ZM70.0783 153.464V155H58.1983V138.2H69.7183V139.736H59.9743V145.712H68.6623V147.224H59.9743V153.464H70.0783ZM82.1341 155.144C80.8861 155.144 79.6861 154.944 78.5341 154.544C77.3981 154.144 76.5181 153.616 75.8941 152.96L76.5901 151.592C77.1981 152.2 78.0061 152.696 79.0141 153.08C80.0221 153.448 81.0621 153.632 82.1341 153.632C83.6381 153.632 84.7661 153.36 85.5181 152.816C86.2701 152.256 86.6461 151.536 86.6461 150.656C86.6461 149.984 86.4381 149.448 86.0221 149.048C85.6221 148.648 85.1261 148.344 84.5341 148.136C83.9421 147.912 83.1181 147.672 82.0621 147.416C80.7981 147.096 79.7901 146.792 79.0381 146.504C78.2861 146.2 77.6381 145.744 77.0941 145.136C76.5661 144.528 76.3021 143.704 76.3021 142.664C76.3021 141.816 76.5261 141.048 76.9741 140.36C77.4221 139.656 78.1101 139.096 79.0381 138.68C79.9661 138.264 81.1181 138.056 82.4941 138.056C83.4541 138.056 84.3901 138.192 85.3021 138.464C86.2301 138.72 87.0301 139.08 87.7021 139.544L87.1021 140.96C86.3981 140.496 85.6461 140.152 84.8461 139.928C84.0461 139.688 83.2621 139.568 82.4941 139.568C81.0221 139.568 79.9101 139.856 79.1581 140.432C78.4221 140.992 78.0541 141.72 78.0541 142.616C78.0541 143.288 78.2541 143.832 78.6541 144.248C79.0701 144.648 79.5821 144.96 80.1901 145.184C80.8141 145.392 81.6461 145.624 82.6861 145.88C83.9181 146.184 84.9101 146.488 85.6621 146.792C86.4301 147.08 87.0781 147.528 87.6061 148.136C88.1341 148.728 88.3981 149.536 88.3981 150.56C88.3981 151.408 88.1661 152.184 87.7021 152.888C87.2541 153.576 86.5581 154.128 85.6141 154.544C84.6701 154.944 83.5101 155.144 82.1341 155.144ZM102.813 155.144C101.149 155.144 99.6448 154.776 98.3008 154.04C96.9728 153.304 95.9248 152.288 95.1568 150.992C94.4048 149.68 94.0288 148.216 94.0288 146.6C94.0288 144.984 94.4048 143.528 95.1568 142.232C95.9248 140.92 96.9808 139.896 98.3248 139.16C99.6688 138.424 101.173 138.056 102.837 138.056C104.085 138.056 105.237 138.264 106.293 138.68C107.349 139.096 108.245 139.704 108.981 140.504L107.853 141.632C106.541 140.304 104.885 139.64 102.885 139.64C101.557 139.64 100.349 139.944 99.2608 140.552C98.1728 141.16 97.3168 141.992 96.6928 143.048C96.0848 144.104 95.7808 145.288 95.7808 146.6C95.7808 147.912 96.0848 149.096 96.6928 150.152C97.3168 151.208 98.1728 152.04 99.2608 152.648C100.349 153.256 101.557 153.56 102.885 153.56C104.901 153.56 106.557 152.888 107.853 151.544L108.981 152.672C108.245 153.472 107.341 154.088 106.269 154.52C105.213 154.936 104.061 155.144 102.813 155.144ZM127.488 155L123.648 149.6C123.216 149.648 122.768 149.672 122.304 149.672H117.792V155H116.016V138.2H122.304C124.448 138.2 126.128 138.712 127.344 139.736C128.56 140.76 129.168 142.168 129.168 143.96C129.168 145.272 128.832 146.384 128.16 147.296C127.504 148.192 126.56 148.84 125.328 149.24L129.432 155H127.488ZM122.256 148.16C123.92 148.16 125.192 147.792 126.072 147.056C126.952 146.32 127.392 145.288 127.392 143.96C127.392 142.6 126.952 141.56 126.072 140.84C125.192 140.104 123.92 139.736 122.256 139.736H117.792V148.16H122.256ZM136.609 138.2H138.385V155H136.609V138.2ZM153.388 138.2C155.532 138.2 157.212 138.712 158.428 139.736C159.644 140.76 160.252 142.168 160.252 143.96C160.252 145.752 159.644 147.16 158.428 148.184C157.212 149.192 155.532 149.696 153.388 149.696H148.876V155H147.1V138.2H153.388ZM153.34 148.136C155.004 148.136 156.276 147.776 157.156 147.056C158.036 146.32 158.476 145.288 158.476 143.96C158.476 142.6 158.036 141.56 157.156 140.84C156.276 140.104 155.004 139.736 153.34 139.736H148.876V148.136H153.34ZM170.043 139.736H164.139V138.2H177.723V139.736H171.819V155H170.043V139.736Z" fill="black"/>
<path d="M36 50V100H86H136V50V0H86H36V50Z" fill="#007ACC"/>
<path d="M58.1132 50.3317L58.0815 54.427L64.5894 54.427H71.0974V72.919V91.4111H75.7005H80.3037V72.919V54.427H86.8116H93.3196V50.4111C93.3196 48.1889 93.272 46.3317 93.2085 46.2841C93.1608 46.2206 85.2402 46.1889 75.637 46.2048L58.1609 46.2524L58.1132 50.3317Z" fill="white"/>
<path d="M116.691 46.1362C119.23 46.7711 121.167 47.8981 122.945 49.7393C123.865 50.7235 125.23 52.5171 125.341 52.9457C125.373 53.0727 121.024 55.9933 118.389 57.6282C118.294 57.6917 117.913 57.279 117.484 56.6441C116.198 54.7711 114.849 53.9616 112.786 53.8187C109.754 53.6124 107.802 55.1997 107.818 57.8504C107.818 58.6282 107.929 59.0885 108.246 59.7235C108.913 61.1044 110.151 61.9298 114.04 63.6124C121.198 66.6917 124.262 68.7235 126.167 71.6123C128.294 74.8346 128.77 79.9774 127.325 83.8028C125.738 87.9616 121.802 90.787 116.262 91.7235C114.548 92.0251 110.484 91.9774 108.643 91.6441C104.627 90.9298 100.818 88.9457 98.4683 86.3425C97.5477 85.3266 95.7541 82.6758 95.8652 82.4854C95.9128 82.4219 96.3255 82.1679 96.7858 81.8981C97.2302 81.6441 98.9128 80.6758 100.5 79.7552L103.373 78.0885L103.976 78.9774C104.818 80.2631 106.659 82.025 107.77 82.6124C110.96 84.2949 115.341 84.0568 117.5 82.1203C118.421 81.279 118.802 80.406 118.802 79.1203C118.802 77.9616 118.659 77.4536 118.056 76.5806C117.278 75.4695 115.691 74.533 111.183 72.5806C106.024 70.3584 103.802 68.9774 101.77 66.787C100.595 65.5171 99.4842 63.4854 99.0239 61.787C98.6429 60.3743 98.5477 56.8346 98.8493 55.406C99.9128 50.4219 103.675 46.9457 109.103 45.9139C110.865 45.5806 114.96 45.7076 116.691 46.1362Z" fill="white"/>
</svg>
